<svg width="130" height="20" viewBox="0 0 130 20" fill="none" xmlns="http://www.w3.org/2000/svg">
<path d="M20 10C20 15.5234 15.5234 20 10 20C4.47656 20 0 15.5234 0 10C0 4.47656 4.47656 0 10 0C15.5234 0 20 4.47656 20 10ZM2.2543 7.50391L2.61992 8.17969C2.94375 8.74609 3.47617 9.16406 4.10547 9.34375L6.33203 9.98828C7.03906 10.1797 7.5 10.793 7.5 11.4922V13.0508C7.5 13.4805 7.74219 13.8711 8.125 14.0273C8.50781 14.2539 8.75 14.6445 8.75 15.0742V16.5977C8.75 17.207 9.33203 17.6445 9.91797 17.4766C10.5508 17.2969 11.0352 16.7617 11.1953 16.1602L11.3047 15.7227C11.4687 15.0625 11.8984 14.4961 12.4883 14.1562L12.8047 13.9766C13.3906 13.6445 13.75 13.0234 13.75 12.3477V12.0273C13.75 11.5273 13.5508 11.0508 13.1992 10.6992L13.0508 10.5508C12.6992 10.1992 12.2188 9.96484 11.7227 9.96484H10.0039C9.60547 9.96484 9.17578 9.88672 8.79687 9.67188L7.44922 8.89844C7.28125 8.80469 7.15234 8.64844 7.09375 8.46484C6.96875 8.08984 7.13672 7.68359 7.48828 7.50391L7.72266 7.39062C7.98047 7.26172 8.27734 7.23828 8.51953 7.33203L9.46094 7.63281C9.77734 7.73828 10.1289 7.61719 10.3164 7.33984C10.5 7.0625 10.4805 6.69922 10.2695 6.44531L9.73828 5.8125C9.34766 5.34375 9.35156 4.66016 9.75 4.19922L10.3633 3.48125C10.707 3.08008 10.7617 2.50625 10.5 2.04766L10.4062 1.88516C10.2383 1.87852 10.1367 1.875 10 1.875C6.37109 1.875 3.29687 4.25391 2.2543 7.50391ZM17.0938 6.03516L16.0938 6.4375C15.4805 6.68359 15.1641 7.36328 15.3711 7.99219L16.0312 9.97266C16.168 10.3789 16.5 10.6875 16.9141 10.793L18.0547 11.0742C18.1016 10.7227 18.125 10.3633 18.125 10C18.125 8.5625 17.75 7.21094 17.0938 6.03516Z" fill="black"/>
<path d="M33.188 18V5.4H41.108V7.56H35.564V10.602H40.676V12.762H35.564V18H33.188ZM41.1482 18L44.4602 5.4H48.6002L51.9122 18H49.4642L48.7802 15.228H44.2802L43.5962 18H41.1482ZM44.8382 13.032H48.2222L46.6922 6.894H46.3682L44.8382 13.032ZM53.4204 18V5.4H55.7964V10.602H60.4764V5.4H62.8524V18H60.4764V12.762H55.7964V18H53.4204ZM70.1289 18.252C68.5449 18.252 67.2849 17.82 66.3489 16.956C65.4129 16.08 64.9449 14.832 64.9449 13.212V10.188C64.9449 8.568 65.4129 7.326 66.3489 6.462C67.2849 5.586 68.5449 5.148 70.1289 5.148C71.7129 5.148 72.9729 5.586 73.9089 6.462C74.8449 7.326 75.3129 8.568 75.3129 10.188V13.212C75.3129 14.832 74.8449 16.08 73.9089 16.956C72.9729 17.82 71.7129 18.252 70.1289 18.252ZM70.1289 16.128C71.0169 16.128 71.7069 15.87 72.1989 15.354C72.6909 14.838 72.9369 14.148 72.9369 13.284V10.116C72.9369 9.252 72.6909 8.562 72.1989 8.046C71.7069 7.53 71.0169 7.272 70.1289 7.272C69.2529 7.272 68.5629 7.53 68.0589 8.046C67.5669 8.562 67.3209 9.252 67.3209 10.116V13.284C67.3209 14.148 67.5669 14.838 68.0589 15.354C68.5629 15.87 69.2529 16.128 70.1289 16.128ZM82.8698 18L81.2138 5.4H83.5718L84.7958 16.344H85.1198L86.7038 5.4H90.8078L92.3918 16.344H92.7158L93.9398 5.4H96.2978L94.6418 18H90.5378L88.9178 6.804H88.5938L86.9738 18H82.8698ZM102.248 18.252C101.36 18.252 100.562 18.072 99.8542 17.712C99.1462 17.352 98.5882 16.83 98.1802 16.146C97.7722 15.462 97.5682 14.64 97.5682 13.68V13.392C97.5682 12.432 97.7722 11.61 98.1802 10.926C98.5882 10.242 99.1462 9.72 99.8542 9.36C100.562 9 101.36 8.82 102.248 8.82C103.136 8.82 103.934 9 104.642 9.36C105.35 9.72 105.908 10.242 106.316 10.926C106.724 11.61 106.928 12.432 106.928 13.392V13.68C106.928 14.64 106.724 15.462 106.316 16.146C105.908 16.83 105.35 17.352 104.642 17.712C103.934 18.072 103.136 18.252 102.248 18.252ZM102.248 16.236C102.944 16.236 103.52 16.014 103.976 15.57C104.432 15.114 104.66 14.466 104.66 13.626V13.446C104.66 12.606 104.432 11.964 103.976 11.52C103.532 11.064 102.956 10.836 102.248 10.836C101.552 10.836 100.976 11.064 100.52 11.52C100.064 11.964 99.8362 12.606 99.8362 13.446V13.626C99.8362 14.466 100.064 15.114 100.52 15.57C100.976 16.014 101.552 16.236 102.248 16.236ZM109.022 18V9.072H111.254V10.08H111.578C111.71 9.72 111.926 9.456 112.226 9.288C112.538 9.12 112.898 9.036 113.306 9.036H114.386V11.052H113.27C112.694 11.052 112.22 11.208 111.848 11.52C111.476 11.82 111.29 12.288 111.29 12.924V18H109.022ZM116.158 18V5.4H118.426V18H116.158ZM124.54 18.252C123.832 18.252 123.166 18.078 122.542 17.73C121.93 17.37 121.438 16.848 121.066 16.164C120.694 15.48 120.508 14.652 120.508 13.68V13.392C120.508 12.42 120.694 11.592 121.066 10.908C121.438 10.224 121.93 9.708 122.542 9.36C123.154 9 123.82 8.82 124.54 8.82C125.08 8.82 125.53 8.886 125.89 9.018C126.262 9.138 126.562 9.294 126.79 9.486C127.018 9.678 127.192 9.882 127.312 10.098H127.636V5.4H129.904V18H127.672V16.92H127.348C127.144 17.256 126.826 17.562 126.394 17.838C125.974 18.114 125.356 18.252 124.54 18.252ZM125.224 16.272C125.92 16.272 126.502 16.05 126.97 15.606C127.438 15.15 127.672 14.49 127.672 13.626V13.446C127.672 12.582 127.438 11.928 126.97 11.484C126.514 11.028 125.932 10.8 125.224 10.8C124.528 10.8 123.946 11.028 123.478 11.484C123.01 11.928 122.776 12.582 122.776 13.446V13.626C122.776 14.49 123.01 15.15 123.478 15.606C123.946 16.05 124.528 16.272 125.224 16.272Z" fill="black"/>
</svg>
